<?xml version="1.0" encoding="UTF-8" standalone="no"?>
<!DOCTYPE svg PUBLIC "-//W3C//DTD SVG 1.1//EN"
 "http://www.w3.org/Graphics/SVG/1.1/DTD/svg11.dtd">
<!-- Generated by graphviz version 2.50.0 (0)
 -->
<!-- Pages: 1 -->
<svg width="317pt" height="606pt"
 viewBox="0.00 0.00 317.00 606.00" xmlns="http://www.w3.org/2000/svg" xmlns:xlink="http://www.w3.org/1999/xlink">
<g id="graph0" class="graph" transform="scale(1 1) rotate(0) translate(72 570)">
<polygon fill="#ffffff" stroke="transparent" points="-72,36 -72,-570 245,-570 245,36 -72,36"/>
<!-- /outputs/7 -->
<g id="node1" class="node">
<title>/outputs/7</title>
<polygon fill="#bcd6fc" stroke="#7c96bc" points="113.5,-534 59.5,-534 59.5,-498 113.5,-498 113.5,-534"/>
<text text-anchor="start" x="74.5" y="-513" font-family="Verdana" font-size="10.00" fill="#202020">Input</text>
</g>
<!-- 3694119980113533878 -->
<g id="node6" class="node">
<title>3694119980113533878</title>
<polygon fill="#bcd6fc" stroke="#7c96bc" points="173,-451 0,-451 0,-415 173,-415 173,-451"/>
<text text-anchor="start" x="8.5" y="-430" font-family="Verdana" font-size="10.00" fill="#202020">Conv3 &gt; MaxPool2 &gt; Activation</text>
</g>
<!-- /outputs/7&#45;&gt;3694119980113533878 -->
<g id="edge3" class="edge">
<title>/outputs/7&#45;&gt;3694119980113533878</title>
<path fill="none" stroke="#7c96bc" d="M86.5,-497.82C86.5,-487.19 86.5,-473.31 86.5,-461.2"/>
<polygon fill="#7c96bc" stroke="#7c96bc" points="90,-461.15 86.5,-451.15 83,-461.15 90,-461.15"/>
<text text-anchor="middle" x="111" y="-472" font-family="Verdana" font-size="10.00" fill="#202020">20x5x200</text>
</g>
<!-- /outputs/22 -->
<g id="node2" class="node">
<title>/outputs/22</title>
<polygon fill="#bcd6fc" stroke="#7c96bc" points="116,-368 57,-368 57,-332 116,-332 116,-368"/>
<text text-anchor="start" x="65.5" y="-347" font-family="Verdana" font-size="10.00" fill="#202020">Reshape</text>
</g>
<!-- 1028432006943404907 -->
<g id="node7" class="node">
<title>1028432006943404907</title>
<polygon fill="#bcd6fc" stroke="#7c96bc" points="164,-285 9,-285 9,-249 164,-249 164,-285"/>
<text text-anchor="start" x="17.5" y="-264" font-family="Verdana" font-size="10.00" fill="#202020">Linear &gt; Activation &gt; Linear</text>
</g>
<!-- /outputs/22&#45;&gt;1028432006943404907 -->
<g id="edge5" class="edge">
<title>/outputs/22&#45;&gt;1028432006943404907</title>
<path fill="none" stroke="#7c96bc" d="M86.5,-331.82C86.5,-321.19 86.5,-307.31 86.5,-295.2"/>
<polygon fill="#7c96bc" stroke="#7c96bc" points="90,-295.15 86.5,-285.15 83,-295.15 90,-295.15"/>
<text text-anchor="middle" x="105" y="-306" font-family="Verdana" font-size="10.00" fill="#202020">20x490</text>
</g>
<!-- /outputs/34 -->
<g id="node3" class="node">
<title>/outputs/34</title>
<polygon fill="#bcd6fc" stroke="#7c96bc" points="116,-202 57,-202 57,-166 116,-166 116,-202"/>
<text text-anchor="start" x="65.5" y="-181" font-family="Verdana" font-size="10.00" fill="#202020">Reshape</text>
</g>
<!-- /outputs/35 -->
<g id="node4" class="node">
<title>/outputs/35</title>
<polygon fill="#bcd6fc" stroke="#7c96bc" points="126,-119 47,-119 47,-83 126,-83 126,-119"/>
<text text-anchor="start" x="55.5" y="-98" font-family="Verdana" font-size="10.00" fill="#202020">Multiply(x,x)</text>
</g>
<!-- /outputs/34&#45;&gt;/outputs/35 -->
<g id="edge1" class="edge">
<title>/outputs/34&#45;&gt;/outputs/35</title>
<path fill="none" stroke="#7c96bc" d="M86.5,-165.82C86.5,-155.19 86.5,-141.31 86.5,-129.2"/>
<polygon fill="#7c96bc" stroke="#7c96bc" points="90,-129.15 86.5,-119.15 83,-129.15 90,-129.15"/>
<text text-anchor="middle" x="111" y="-140" font-family="Verdana" font-size="10.00" fill="#202020">20x1x200</text>
</g>
<!-- /outputs/37 -->
<g id="node5" class="node">
<title>/outputs/37</title>
<polygon fill="#bcd6fc" stroke="#7c96bc" points="148,-36 25,-36 25,0 148,0 148,-36"/>
<text text-anchor="start" x="33.5" y="-15" font-family="Verdana" font-size="10.00" fill="#202020">Gaussian Smoothing5</text>
</g>
<!-- /outputs/35&#45;&gt;/outputs/37 -->
<g id="edge2" class="edge">
<title>/outputs/35&#45;&gt;/outputs/37</title>
<path fill="none" stroke="#7c96bc" d="M86.5,-82.82C86.5,-72.19 86.5,-58.31 86.5,-46.2"/>
<polygon fill="#7c96bc" stroke="#7c96bc" points="90,-46.15 86.5,-36.15 83,-46.15 90,-46.15"/>
<text text-anchor="middle" x="111" y="-57" font-family="Verdana" font-size="10.00" fill="#202020">20x1x200</text>
</g>
<!-- 3694119980113533878&#45;&gt;/outputs/22 -->
<g id="edge4" class="edge">
<title>3694119980113533878&#45;&gt;/outputs/22</title>
<path fill="none" stroke="#7c96bc" d="M86.5,-414.82C86.5,-404.19 86.5,-390.31 86.5,-378.2"/>
<polygon fill="#7c96bc" stroke="#7c96bc" points="90,-378.15 86.5,-368.15 83,-378.15 90,-378.15"/>
<text text-anchor="middle" x="111" y="-389" font-family="Verdana" font-size="10.00" fill="#202020">20x10x49</text>
</g>
<!-- 1028432006943404907&#45;&gt;/outputs/34 -->
<g id="edge6" class="edge">
<title>1028432006943404907&#45;&gt;/outputs/34</title>
<path fill="none" stroke="#7c96bc" d="M86.5,-248.82C86.5,-238.19 86.5,-224.31 86.5,-212.2"/>
<polygon fill="#7c96bc" stroke="#7c96bc" points="90,-212.15 86.5,-202.15 83,-212.15 90,-212.15"/>
<text text-anchor="middle" x="105" y="-223" font-family="Verdana" font-size="10.00" fill="#202020">20x200</text>
</g>
</g>
</svg>
